<?xml version="1.0" encoding="utf-8"?>
<!-- Generator: Adobe Illustrator 23.0.0, SVG Export Plug-In . SVG Version: 6.00 Build 0)  -->
<svg version="1.1" id="Capa_1" xmlns="http://www.w3.org/2000/svg" xmlns:xlink="http://www.w3.org/1999/xlink" x="0px" y="0px"
	 viewBox="0 0 140 60" style="enable-background:new 0 0 140 60;" xml:space="preserve">
<style type="text/css">
	.st0{fill:#FFFFFF;}
	.st1{fill:#FEA500;}
</style>
<g>
	<g>
		<path class="st0" d="M21.1,6.7L41.3,51h-9.4L21.1,27.3L10.4,51H1L21.1,6.7z"/>
		<g>
			<path class="st1" d="M22.4,47.3l-6.1,0.5c0,0-0.8-2.5-1.6-4.3c-0.6-1.4-1.1-2.7-1.5-3.5c-1.6-2.8-2.5-4.1-3.8-5.4
				c-1.3-1.4-2.9-2-4.3-2c1.9-1.5,3.5-2.2,4.9-2.3c2-0.1,4.7,1.8,6.7,4.7c0.6,0.8,2.7,3.5,2.7,3.5c8.6-17.7,21.9-23.6,24.6-24v2.5
				c-3.8,2.5-7.7,5.6-11.3,10C29.8,30.4,24.7,40.9,22.4,47.3z"/>
		</g>
		<path class="st0" d="M41.3,26h5.4l6.2,16.4L59.1,26h5.4l-9.3,24.6h-4.6L41.3,26z"/>
		<path class="st0" d="M67.4,26h5.3v24.6h-5.3V26z"/>
		<path class="st0" d="M91.5,28.3l-3.3,3.6c-1.8-1.1-2.9-1.5-3.8-1.5c-0.6,0-1.1,0.2-1.5,0.7c-0.5,0.5-0.6,0.9-0.6,1.6
			c0,1.2,1.1,2.2,3.3,3.2c1.6,0.7,2.8,1.3,3.6,1.9c0.8,0.6,1.5,1.3,2.1,2.3c0.6,0.9,0.8,2.1,0.8,3.2c0,2.1-0.8,4-2.6,5.5
			c-1.8,1.5-3.8,2.3-6.1,2.3c-2.6,0-5-1.2-7.5-3.6l3.5-4.1c1.5,1.6,3,2.5,4.3,2.5c0.6,0,1.3-0.2,1.9-0.8s0.9-1.2,0.9-1.8
			c0-1.3-1.4-2.5-4.1-3.4c-1.5-0.6-2.7-1.1-3.3-1.6c-0.7-0.5-1.2-1.2-1.6-2.1c-0.5-0.9-0.7-1.9-0.7-2.9c0-2.2,0.7-4,2.1-5.3
			c1.4-1.4,3.3-2,5.6-2C87.4,25.7,89.7,26.6,91.5,28.3z"/>
		<path class="st0" d="M95.2,38.4c0-3.6,1.2-6.7,3.6-9c2.5-2.3,5.3-3.5,8.6-3.5c3.6,0,6.7,1.2,9,3.5s3.6,5.4,3.6,9
			c0,3.6-1.2,6.6-3.5,9c-2.3,2.3-5.4,3.6-8.9,3.6c-3.6,0-6.6-1.2-8.9-3.5C96.3,45,95.2,42,95.2,38.4z M107.5,30.7
			c-2.1,0-3.8,0.7-5,2.1c-1.3,1.4-1.9,3.4-1.9,5.6c0,2.2,0.7,4,1.9,5.4c1.3,1.4,2.9,2.1,4.9,2.1c2.1,0,3.8-0.7,5-2.1
			s1.9-3.3,1.9-5.6s-0.6-4.1-1.9-5.5C111.3,31.4,109.6,30.7,107.5,30.7z"/>
		<path class="st0" d="M138.3,28.3l-3.3,3.6c-1.8-1.1-2.9-1.5-3.8-1.5c-0.6,0-1.1,0.2-1.5,0.7c-0.5,0.5-0.6,0.9-0.6,1.6
			c0,1.2,1.1,2.2,3.3,3.2c1.6,0.7,2.8,1.3,3.6,1.9c0.8,0.6,1.5,1.3,2.1,2.3c0.6,0.9,0.8,2.1,0.8,3.2c0,2.1-0.8,4-2.6,5.5
			c-1.8,1.5-3.8,2.3-6.1,2.3c-2.6,0-5-1.2-7.5-3.6l3.5-4.1c1.5,1.6,3,2.5,4.3,2.5c0.6,0,1.3-0.2,1.9-0.8s0.9-1.2,0.9-1.8
			c0-1.3-1.4-2.5-4.1-3.4c-1.5-0.6-2.7-1.1-3.3-1.6s-1.2-1.2-1.6-2.1c-0.5-0.9-0.7-1.9-0.7-2.9c0-2.2,0.7-4,2.1-5.3
			c1.4-1.4,3.3-2,5.6-2C134,25.7,136.4,26.6,138.3,28.3z"/>
	</g>
</g>
</svg>
